<?xml version="1.0" encoding="UTF-8" standalone="no"?>
<!-- Created with Inkscape (http://www.inkscape.org/) -->

<svg
   xmlns:dc="http://purl.org/dc/elements/1.1/"
   xmlns:cc="http://creativecommons.org/ns#"
   xmlns:rdf="http://www.w3.org/1999/02/22-rdf-syntax-ns#"
   xmlns:svg="http://www.w3.org/2000/svg"
   xmlns="http://www.w3.org/2000/svg"
   xmlns:sodipodi="http://sodipodi.sourceforge.net/DTD/sodipodi-0.dtd"
   xmlns:inkscape="http://www.inkscape.org/namespaces/inkscape"
   width="124.98526"
   height="264.6875"
   id="svg2309"
   sodipodi:version="0.32"
   inkscape:version="0.92.4 (5da689c313, 2019-01-14)"
   sodipodi:modified="true"
   version="1.0"
   sodipodi:docname="Tcl EDIT TO BLUE.svg">
  <defs
     id="defs2311" />
  <sodipodi:namedview
     id="base"
     pagecolor="#ffffff"
     bordercolor="#666666"
     borderopacity="1.0"
     gridtolerance="10000"
     guidetolerance="10"
     objecttolerance="10"
     inkscape:pageopacity="0.0"
     inkscape:pageshadow="2"
     inkscape:zoom="0.98994949"
     inkscape:cx="81.590936"
     inkscape:cy="154.80651"
     inkscape:document-units="px"
     inkscape:current-layer="layer1"
     inkscape:window-width="1920"
     inkscape:window-height="1017"
     inkscape:window-x="-8"
     inkscape:window-y="-8"
     showgrid="false"
     inkscape:window-maximized="1" />
  <metadata
     id="metadata2314">
    <rdf:RDF>
      <cc:Work
         rdf:about="">
        <dc:format>image/svg+xml</dc:format>
        <dc:type
           rdf:resource="http://purl.org/dc/dcmitype/StillImage" />
        <dc:title></dc:title>
      </cc:Work>
    </rdf:RDF>
  </metadata>
  <g
     inkscape:label="Layer 1"
     inkscape:groupmode="layer"
     id="layer1"
     transform="translate(-311.79308,-365.73272)">
    <path
       inkscape:connector-curvature="0"
       style="display:inline;fill:#4587db;fill-opacity:1;fill-rule:evenodd;stroke:none;stroke-width:1px;stroke-linecap:butt;stroke-linejoin:miter;stroke-opacity:1"
       d="m 430.45998,374.01397 c 0.3816,23.33209 -0.31077,46.41243 -20.5,68.34375 l -0.75,0.84375 h 1.125 l 8.25,0.125 c -13.4055,27.88641 -22.12748,55.6937 -41.40625,83.46875 l -0.6875,1 1.1875,-0.21875 10.1875,-1.9375 c -7.2169,18.31031 -19.55758,30.43279 -32.9375,34.5 -3.6826,-51.56863 22.05226,-97.08706 43.90625,-142.46875 0.0201,-0.0417 0.0424,-0.0833 0.0625,-0.125 l -0.8125,-0.5625 c -35.78567,40.01351 -51.9112,96.44881 -58,143 -12.12846,-6.84723 -16.17079,-15.9131 -20.28125,-28.25 l 8.46875,3.5625 0.875,0.375 -0.1875,-0.9375 c -6.43634,-28.61973 3.55648,-49.16246 13.25,-76.15625 l 6.96875,4.65625 0.8125,0.5625 -0.0312,-0.96875 c -0.546,-21.93119 14.22103,-43.94781 33.8125,-63.59375 l 2.71875,7.28125 0.375,0.96875 0.53125,-0.90625 5.96875,-9.9375 0.0312,-0.0625 c 9.85187,-13.56952 20.26746,-17.98682 37.0625,-22.5625 z"
       id="path4426" />
    <path
       inkscape:connector-curvature="0"
       style="display:inline;opacity:1;fill:#9dc7f3;fill-opacity:1;fill-rule:evenodd;stroke:#eff1cb;stroke-width:1px;stroke-linecap:butt;stroke-linejoin:miter;stroke-opacity:1"
       d="m 430.50986,374.00103 c -16.73773,4.56621 -27.27964,9.03227 -37.11238,22.57544 l -0.0312,0.0625 -5.96875,9.9375 -0.53125,0.90625 -0.375,-0.96875 -2.71875,-7.28125 c -19.59147,19.64594 -34.3585,41.66256 -33.8125,63.59375 l 0.0312,0.96875 -0.8125,-0.5625 -6.96875,-4.65625 c -9.69352,26.99379 -19.68634,47.53652 -13.25,76.15625 l 0.1875,0.9375 -0.875,-0.375 -8.375,-3.53125 c 0.027,0.17148 0.0656,0.33046 0.0937,0.5 4.0491,12.05775 8.1457,20.97338 20.09375,27.71875 0.47162,-3.60569 0.99723,-7.28794 1.59375,-11 -14.59059,-34.16414 -1.92582,-59.2811 3.84375,-81.875 l 8.875,5.125 c -1.22592,-21.15548 11.19424,-43.97039 27.34375,-63.875 l 4.6875,8.25 c 12.00875,-24.70084 21.50637,-34.61575 44.08113,-42.60669 z"
       id="path7600"
       sodipodi:nodetypes="ccccccccccccccccccccccc" />
    <path
       inkscape:connector-curvature="0"
       id="path2177"
       d="m 435.89748,365.73272 -0.53125,0.0937 c -19.6846,3.43351 -38.95545,10.66619 -47.40625,27.96875 l -3.5625,-6.21875 -0.3125,-0.5625 -0.46875,0.46875 c -9.69371,9.27588 -20.10051,21.29056 -27.78125,33.09375 -7.20972,11.07937 -11.99173,21.92309 -11.46875,30.21875 l -5.03125,-6.28125 -0.5,-0.625 -0.34375,0.71875 c -6.12393,13.22899 -12.30431,29.50407 -16,44.4375 -3.504,14.15885 -4.75881,27.04706 -1.5,35.15625 l -8.28125,-4.8125 -0.6875,-0.40625 -0.0625,0.8125 c -1.55911,23.61702 8.0382,34.89333 19.0625,45.78125 l -9.1875,2.28125 -1.84375,0.46875 1.84375,0.5 c 5.27453,1.42933 10.27523,3.0386 13.75,5.71875 3.47477,2.68015 5.47098,6.36582 4.875,12.25 v 0.0312 25.5 0.15625 l 0.0937,0.125 11.5,16.5 0.90625,1.31255 v -1.59375 -38.875 c 1.52181,-6.5439 3.30807,-11.04795 5.875,-14.03125 2.56693,-2.9833 5.90711,-4.51517 10.6875,-5.09375 l 1.71875,-0.21875 -1.5625,-0.71875 -6.0625,-2.875 c 14.45549,-8.70374 30.64505,-30.0393 34.90625,-50.3125 l 0.1875,-0.8125 -0.78125,0.21875 -7.5,2.03125 c 6.66299,-6.25626 13.37517,-18.65154 19.75,-33.09375 6.76105,-15.3172 13.07372,-32.66468 18.25,-46.53125 l 0.28125,-0.75 -0.78125,0.0625 -5.78125,0.40625 c 7.1471,-7.58581 11.11953,-20.1129 13.0625,-33.34375 2.02227,-13.77082 1.88035,-28.27105 0.75,-38.625 z m -5.4375,8.28125 c 0.3816,23.33209 -0.31077,46.41243 -20.5,68.34375 l -0.75,0.84375 h 1.125 l 8.25,0.125 c -13.4055,27.88641 -22.12748,55.6937 -41.40625,83.46875 l -0.6875,1 1.1875,-0.21875 10.1875,-1.9375 c -7.2169,18.31031 -19.55758,30.43279 -32.9375,34.5 -3.6826,-51.56863 22.05226,-97.08706 43.90625,-142.46875 0.0201,-0.0417 0.0424,-0.0833 0.0625,-0.125 l -0.8125,-0.5625 c -35.78567,40.01351 -51.9112,96.44881 -58,143 -12.12846,-6.84723 -16.17079,-15.9131 -20.28125,-28.25 l 8.46875,3.5625 0.875,0.375 -0.1875,-0.9375 c -6.43634,-28.61973 3.55648,-49.16246 13.25,-76.15625 l 6.96875,4.65625 0.8125,0.5625 -0.0312,-0.96875 c -0.546,-21.93119 14.22103,-43.94781 33.8125,-63.59375 l 2.71875,7.28125 0.375,0.96875 0.53125,-0.90625 5.96875,-9.9375 0.0312,-0.0625 c 9.85187,-13.56952 20.26746,-17.98682 37.0625,-22.5625 z"
       style="display:inline;fill:#000000;fill-opacity:1;fill-rule:evenodd;stroke:none;stroke-width:1px;stroke-linecap:butt;stroke-linejoin:miter;stroke-opacity:1" />
  </g>
</svg>
