<?xml version="1.0" encoding="UTF-8" standalone="no"?>
<!-- Generator: Adobe Illustrator 19.0.0, SVG Export Plug-In . SVG Version: 6.00 Build 0)  -->

<svg
   xmlns:dc="http://purl.org/dc/elements/1.1/"
   xmlns:cc="http://creativecommons.org/ns#"
   xmlns:rdf="http://www.w3.org/1999/02/22-rdf-syntax-ns#"
   xmlns:svg="http://www.w3.org/2000/svg"
   xmlns="http://www.w3.org/2000/svg"
   xmlns:sodipodi="http://sodipodi.sourceforge.net/DTD/sodipodi-0.dtd"
   xmlns:inkscape="http://www.inkscape.org/namespaces/inkscape"
   version="1.1"
   id="Layer_1"
   x="0px"
   y="0px"
   viewBox="0 0 512 512"
   style="enable-background:new 0 0 512 512;"
   xml:space="preserve"
   sodipodi:docname="JSON.svg"
   inkscape:version="0.92.4 (5da689c313, 2019-01-14)"><metadata
   id="metadata55"><rdf:RDF><cc:Work
       rdf:about=""><dc:format>image/svg+xml</dc:format><dc:type
         rdf:resource="http://purl.org/dc/dcmitype/StillImage" /></cc:Work></rdf:RDF></metadata><defs
   id="defs53" /><sodipodi:namedview
   pagecolor="#ffffff"
   bordercolor="#666666"
   borderopacity="1"
   objecttolerance="10"
   gridtolerance="10"
   guidetolerance="10"
   inkscape:pageopacity="0"
   inkscape:pageshadow="2"
   inkscape:window-width="1920"
   inkscape:window-height="1017"
   id="namedview51"
   showgrid="false"
   inkscape:zoom="1.3037281"
   inkscape:cx="-8.8141039"
   inkscape:cy="287.85404"
   inkscape:window-x="-8"
   inkscape:window-y="-8"
   inkscape:window-maximized="1"
   inkscape:current-layer="Layer_1" />
<path
   style="fill:#E2E5E7;"
   d="M128,0c-17.6,0-32,14.4-32,32v448c0,17.6,14.4,32,32,32h320c17.6,0,32-14.4,32-32V128L352,0H128z"
   id="path2" />
<path
   style="fill:#B0B7BD;"
   d="M384,128h96L352,0v96C352,113.6,366.4,128,384,128z"
   id="path4" />
<polygon
   style="fill:#CAD1D8;"
   points="480,224 384,128 480,128 "
   id="polygon6" />
<path
   style="fill:#f1c318;fill-opacity:1"
   d="M416,416c0,8.8-7.2,16-16,16H48c-8.8,0-16-7.2-16-16V256c0-8.8,7.2-16,16-16h352c8.8,0,16,7.2,16,16  V416z"
   id="path8" />
<g
   aria-label="JSON"
   transform="translate(-23.579062,7.4951189)"
   style="font-style:normal;font-variant:normal;font-weight:normal;font-stretch:normal;font-size:90.66666412px;line-height:1.25;font-family:'Multicolore Pro';-inkscape-font-specification:'Multicolore Pro';letter-spacing:0px;word-spacing:0px;fill:#000000;fill-opacity:1;stroke:none"
   id="flowRoot862"><path
     d="m 143.31188,287.25155 c -4.17067,0 -7.52533,3.44533 -7.52533,7.616 v 46.05866 c 0,9.33867 -3.98934,13.50934 -12.87467,13.50934 -0.544,0 -0.99733,0 -1.54133,0.0907 -0.45334,-0.0907 -0.99734,-0.0907 -1.45067,-0.0907 -3.808,0 -7.616,-2.176 -11.696,-6.528 -1.45067,-1.632 -3.536,-2.448 -5.53067,-2.448 -1.81333,0 -3.71733,0.63466 -5.167997,1.99466 -3.082666,2.81067 -3.263999,7.616 -0.362666,10.69867 6.981333,7.52533 14.597333,11.33333 22.757333,11.33333 0.45333,0 0.99733,0 1.45067,-0.0907 0.544,0.0907 0.99733,0.0907 1.54133,0.0907 17.31733,0 28.016,-10.97066 28.016,-28.56 v -46.05866 c 0,-4.17067 -3.35467,-7.616 -7.616,-7.616 z"
     style="font-size:90.66666412px;fill:#ffffff;fill-opacity:1"
     id="path870" /><path
     d="m 213.52896,328.32355 c -4.896,-3.264 -11.424,-5.712 -20.58133,-7.616 0,0 0,0 0,0 -14.86934,-3.264 -14.86934,-8.79467 -14.416,-12.69334 0.63466,-4.44266 4.352,-6.98133 14.23466,-6.43733 0.36267,0.0907 0.72534,0.0907 1.17867,0.0907 0,0 0,0 0,0 3.98933,0.36267 8.976,2.08533 15.05067,5.168 3.71733,1.904 8.25066,0.45333 10.15466,-3.264 1.904,-3.71733 0.45334,-8.25067 -3.264,-10.15467 -7.97866,-4.17066 -14.86933,-6.43733 -21.03466,-6.89066 0,0 0,0 0,0 -1.36,-0.0907 -2.62934,-0.0907 -3.89867,-0.0907 -16.32,0 -27.472,7.70667 -27.92533,24.48 -0.0907,5.34933 1.632,12.87466 10.42666,18.496 4.08,2.62933 9.248,4.53333 16.22934,6.07466 0,0 0,0 0.0907,0 0,0 0,0 0,0 0,0 0,0 0,0 0,0 0,0 0,0 18.85867,3.98934 18.85867,9.248 18.85867,11.24267 0,1.632 -0.36267,3.98933 -2.448,5.984 -2.35733,2.35733 -6.43733,3.62667 -11.696,3.62667 -0.36267,0 -0.63467,-0.0907 -0.90667,-0.0907 0,0 -0.0907,0 -0.0907,0 -9.15734,-0.18133 -15.68534,-3.71733 -21.30667,-7.43467 -3.536,-2.26666 -8.25067,-1.26933 -10.51733,2.176 -2.26667,3.536 -1.26934,8.25067 2.176,10.51734 7.25333,4.71466 16.32,9.61066 29.376,9.88266 0,0 0,0 0,0 0,0 0,0 0,0 0.45333,0 0.816,0 1.26933,0 11.696,0 18.58667,-4.17066 22.304,-7.79733 4.53333,-4.44267 6.98133,-10.42667 6.98133,-16.864 0,-5.25867 -1.72266,-12.69333 -10.24533,-18.40533 z"
     style="font-size:90.66666412px;fill:#ffffff;fill-opacity:1"
     id="path872" /><path
     d="m 317.44712,328.50488 c 0,-23.57333 -19.312,-42.88533 -42.88533,-42.88533 v 0 0 c -23.664,0 -42.88534,19.312 -42.88534,42.88533 0,23.664 19.22134,42.88533 42.88534,42.88533 23.57333,0 42.88533,-19.22133 42.88533,-42.88533 z m -42.88533,27.83467 c 0,0 0,0 0,0 -15.32267,0 -27.83467,-12.512 -27.83467,-27.83467 0,0 0,0 0,0 0,-15.232 12.512,-27.744 27.83467,-27.744 15.23199,0 27.74399,12.512 27.74399,27.744 v 0 c 0,15.32267 -12.512,27.83467 -27.74399,27.83467 z"
     style="font-size:90.66666412px;fill:#ffffff;fill-opacity:1"
     id="path874" /><path
     d="m 398.43088,365.85955 c 0,-0.0907 0.0907,-0.18134 0.18133,-0.272 0,-0.0907 0.0907,-0.0907 0.0907,-0.18134 0.0907,-0.0907 0.0907,-0.18133 0.18133,-0.272 0,-0.0907 0.0907,-0.0907 0.0907,-0.18133 0.18133,-0.18133 0.272,-0.45333 0.36266,-0.63467 0,0 0,0 0,-0.0907 0.0907,-0.0907 0.0907,-0.18134 0.18134,-0.272 0,-0.0907 0,-0.18134 0.0907,-0.18134 0,-0.0907 0,-0.272 0.0907,-0.36266 0,0 0,-0.0907 0,-0.18134 0.0907,-0.0907 0.0907,-0.18133 0.18133,-0.36266 0,0 0,-0.0907 0,-0.0907 0,-0.272 0.0907,-0.45333 0.0907,-0.72533 0,0 0,-0.0907 0.0907,-0.0907 0,-0.18133 0,-0.272 0,-0.36267 0,-0.0907 0,-0.18133 0,-0.18133 0,-0.0907 0,-0.18133 0,-0.272 0,0 0,-0.0907 0,-0.0907 0,-0.0907 0,-0.18133 0,-0.18133 0,-0.18133 0,-0.272 0,-0.36267 v -65.18933 c 0,-4.17066 -3.44534,-7.52533 -7.616,-7.52533 -4.17067,0 -7.52533,3.35467 -7.52533,7.52533 v 45.24267 l -42.432,-50.048 c -1.45067,-1.72267 -3.536,-2.72 -5.89334,-2.72 -4.624,0 -7.70666,3.89867 -7.52533,7.97867 v 65.37066 c 0,4.26133 3.35467,7.616 7.52533,7.616 4.17067,0 7.616,-3.35467 7.616,-7.616 v -45.152 l 42.432,50.048 c 0,0 0,-0.0907 -0.0907,-0.0907 0.0907,0.0907 0.18133,0.18134 0.272,0.272 0,0.0907 0.0907,0.0907 0.0907,0.0907 0.0907,0.0907 0.18133,0.18133 0.18133,0.272 0.0907,0 0.0907,0 0.0907,0 0.272,0.272 0.45333,0.45333 0.72533,0.63467 0,0 0.0907,0.0907 0.0907,0.0907 0,0 0,0 0,0 0.0907,0.0907 0.18133,0.0907 0.272,0.18134 0,0 0,0 0,0 0.0907,0.0907 0.18133,0.0907 0.272,0.18133 0.0907,0.0907 0.272,0.18133 0.36267,0.272 0,0 0,0 0,0 0.0907,0 0.0907,0 0.18133,0.0907 0,0 0,0 0,0 0.0907,0 0.0907,0 0.18133,0 0,0 0,0 0,0 0,0.0907 0.0907,0.0907 0.0907,0.0907 0,0 0,0 0,0 0,0 0.0907,0 0.0907,0 0,0 0,0 0,0 0,0 0,0 0,0 -0.0907,0 -0.0907,0 -0.0907,0 0,0 0,0 0,0 0,0 0,0 -0.0907,-0.0907 0.272,0.0907 0.45334,0.18133 0.63467,0.272 0.0907,0 0.18133,0.0907 0.18133,0.0907 0.18134,0 0.36267,0.0907 0.45334,0.0907 0.0907,0.0907 0.18133,0.0907 0.18133,0.0907 0.18133,0 0.36267,0.0907 0.45333,0.0907 0.0907,0 0.18134,0 0.18134,0 0.272,0.0907 0.45333,0.0907 0.63466,0.0907 0,0 0.0907,0 0.0907,0 0.18133,0 0.36267,0 0.544,0 0,0 0,0 0,0 0.0907,0 0.0907,0 0.18133,0 0.0907,0 0.272,0 0.36267,0 0.0907,0 0.18133,0 0.18133,0 0.18134,0 0.36267,-0.0907 0.45334,-0.0907 0.0907,0 0.0907,0 0.0907,0 0,0 0,0 0.0907,0 0.18133,0 0.36267,-0.0907 0.544,-0.18133 0,0 0.0907,0 0.0907,0 0.18133,-0.0907 0.272,-0.0907 0.36266,-0.18133 0.0907,0 0.18134,0 0.272,0 0.0907,-0.0907 0.18134,-0.0907 0.272,-0.18134 0.0907,0 0.18134,-0.0907 0.18134,-0.0907 0.18133,-0.0907 0.272,-0.18134 0.45333,-0.18134 0,-0.0907 0,-0.0907 0.0907,-0.0907 0,0 0,0 0.0907,0 0.0907,-0.0907 0.18134,-0.18134 0.36267,-0.272 0,-0.0907 0.0907,-0.0907 0.18133,-0.18134 0.0907,0 0.18134,-0.0907 0.18134,-0.18133 0.0907,0 0.18133,-0.0907 0.272,-0.0907 0,-0.0907 0.0907,-0.18133 0.18133,-0.272 0.0907,0 0.0907,-0.0907 0.18133,-0.18133 0.0907,-0.0907 0.18134,-0.18133 0.36267,-0.272 0,-0.0907 0.0907,-0.18133 0.18133,-0.272 0,-0.0907 0.0907,-0.0907 0.18134,-0.18133 z"
     style="font-size:90.66666412px;fill:#ffffff;fill-opacity:1"
     id="path876" /></g>
<path
   style="fill:#CAD1D8;"
   d="M400,432H96v16h304c8.8,0,16-7.2,16-16v-16C416,424.8,408.8,432,400,432z"
   id="path18" />
<g
   id="g20">
</g>
<g
   id="g22">
</g>
<g
   id="g24">
</g>
<g
   id="g26">
</g>
<g
   id="g28">
</g>
<g
   id="g30">
</g>
<g
   id="g32">
</g>
<g
   id="g34">
</g>
<g
   id="g36">
</g>
<g
   id="g38">
</g>
<g
   id="g40">
</g>
<g
   id="g42">
</g>
<g
   id="g44">
</g>
<g
   id="g46">
</g>
<g
   id="g48">
</g>
</svg>