<svg xmlns="http://www.w3.org/2000/svg" width="354.915" height="180.238" viewBox="0 0 93.904 47.688"><g transform="translate(-41.903 -88.227)"><path d="M71.56 89.209c-.818 1.873-2.452 5.62-3.902 8.689-1.45 3.07-2.716 5.462-9.528 8.906-6.812 3.443-19.17 7.938-14.975 14.612 4.194 6.675 24.941 15.528 32.434 13.885 7.492-1.644 1.73-13.786-.597-21.142-2.326-7.356-1.215-9.922.095-13.067 1.31-3.145 2.815-6.854 3.568-8.71.753-1.858-6.278-5.047-7.095-3.173z" style="fill:none;fill-opacity:1;stroke:#000;stroke-width:.823;stroke-linecap:round;stroke-linejoin:round;stroke-dasharray:none;stroke-opacity:.5"/><path d="M71.989 94.303c-.954 2.315-1.908 4.63-3.375 7.053s-3.447 4.953-9.347 7.945c-5.901 2.992-15.721 6.445-12.268 11.744 3.454 5.3 20.182 12.444 26.198 11.21 6.016-1.235 1.32-10.849-.669-17.204-1.989-6.356-1.27-9.451-.392-12.134.878-2.682 1.916-4.95 2.953-7.22-.432-.314-.863-.628-1.38-.86-.517-.233-1.119-.384-1.72-.534z" style="fill:#62ed43;fill-opacity:.792254;stroke:none;stroke-width:1.36393;stroke-linecap:round;stroke-linejoin:round;stroke-dasharray:none;stroke-opacity:1"/><g transform="matrix(.84336 -.17314 .17314 .84336 16.295 94.068)"><rect width="27.32" height="36.159" x="74.422" y="24.049" rx="2.19" ry="1.825" style="fill:#7c4e2e;fill-opacity:1;stroke:#000;stroke-width:.918518;stroke-linecap:round;stroke-linejoin:round;stroke-dasharray:none;stroke-opacity:1"/><rect width="27.32" height="36.159" x="101.87" y="24.049" rx="2.312" ry="1.618" style="fill:#7c4e2e;fill-opacity:1;stroke:#000;stroke-width:.918518;stroke-linecap:round;stroke-linejoin:round;stroke-dasharray:none;stroke-opacity:1"/><rect width="25.182" height="31.665" x="101.806" y="26.2" ry="3.867" style="fill:#fff;fill-opacity:1;stroke:#000;stroke-width:.825228;stroke-linecap:round;stroke-linejoin:round;stroke-dasharray:none;stroke-opacity:1"/><rect width="23.749" height="31.571" x="101.77" y="26.253" ry="3.856" style="fill:#fff;fill-opacity:1;stroke:#000;stroke-width:.497771;stroke-linecap:round;stroke-linejoin:round;stroke-dasharray:none;stroke-opacity:1"/><g transform="translate(-18.166 13.074)"><rect width="25.182" height="31.665" x="94.79" y="13.126" ry="3.867" style="fill:#fff;fill-opacity:1;stroke:#000;stroke-width:.825228;stroke-linecap:round;stroke-linejoin:round;stroke-dasharray:none;stroke-opacity:1"/><g transform="matrix(.8812 0 0 .8812 16.862 -64.093)"><rect width="16.529" height="2.065" x="94.059" y="93.092" rx="0" ry=".548" style="fill:#adadad;fill-opacity:1;stroke:none;stroke-width:.812279;stroke-linecap:round;stroke-linejoin:round;stroke-dasharray:none;stroke-opacity:1"/><rect width="14.24" height="2.065" x="94.059" y="97.796" rx="0" ry=".548" style="fill:#adadad;fill-opacity:1;stroke:none;stroke-width:.753945;stroke-linecap:round;stroke-linejoin:round;stroke-dasharray:none;stroke-opacity:1"/><rect width="17.338" height="2.065" x="94.059" y="104.449" rx="0" ry=".548" style="fill:#adadad;fill-opacity:1;stroke:none;stroke-width:.831907;stroke-linecap:round;stroke-linejoin:round;stroke-dasharray:none;stroke-opacity:1"/><rect width="17.338" height="2.065" x="94.059" y="108.063" rx="0" ry=".548" style="fill:#adadad;fill-opacity:1;stroke:none;stroke-width:.831907;stroke-linecap:round;stroke-linejoin:round;stroke-dasharray:none;stroke-opacity:1"/></g><g transform="matrix(.8812 0 0 .8812 16.862 -61.92)"><g transform="translate(0 -1.777)"><rect width="18.766" height="2.065" x="121.909" y="92.404" rx="0" ry=".548" style="fill:#adadad;fill-opacity:1;stroke:none;stroke-width:.8655;stroke-linecap:round;stroke-linejoin:round;stroke-dasharray:none;stroke-opacity:1"/><rect width="14.809" height="2.065" x="121.909" y="96.706" rx="0" ry=".548" style="fill:#adadad;fill-opacity:1;stroke:none;stroke-width:.768837;stroke-linecap:round;stroke-linejoin:round;stroke-dasharray:none;stroke-opacity:1"/><rect width="18.594" height="2.065" x="121.909" y="102.9" rx="0" ry=".548" style="fill:#adadad;fill-opacity:1;stroke:none;stroke-width:.861523;stroke-linecap:round;stroke-linejoin:round;stroke-dasharray:none;stroke-opacity:1"/></g><rect width="13.938" height="8.26" x="126.738" y="108.235" ry=".548" style="fill:#adadad;fill-opacity:1;stroke:none;stroke-width:.961001;stroke-linecap:round;stroke-linejoin:round;stroke-dasharray:none;stroke-opacity:1"/></g></g><path d="m106.335 23.005-2.01 2.026-1.815-2.006v5.528c0 .853-.15.844.8.844h2.225c.866 0 .8.065.8-.844z" style="fill:#dc514c;fill-opacity:1;stroke:#1d1d1d;stroke-width:.375;stroke-linecap:round;stroke-linejoin:round;stroke-dasharray:none;stroke-opacity:1" transform="translate(.133 -1.04)"/><path d="M106.335 26.857h-3.825v22.125c0 3.401-.15 3.367.8 3.367h2.225c.866 0 .8.259.8-3.367z" style="fill:#dc514c;fill-opacity:1;stroke:#1d1d1d;stroke-width:.349;stroke-linecap:round;stroke-linejoin:round;stroke-dasharray:none;stroke-opacity:1" transform="translate(.133 -1.04)"/><rect width="3.458" height=".479" x="102.823" y="25.179" rx="0" ry="0" style="fill:#753c3e;fill-opacity:1;stroke:none;stroke-width:.222827;stroke-linecap:round;stroke-linejoin:round;stroke-dasharray:none;stroke-opacity:1"/></g><ellipse cx="56.039" cy="115.527" rx="1.529" ry="1.524" style="fill:#fff;fill-opacity:1;stroke:none;stroke-width:.357829;stroke-linecap:round;stroke-linejoin:round;stroke-dasharray:none;stroke-opacity:1"/><circle cx="64.751" cy="111.904" r="1.123" style="fill:#fff;fill-opacity:1;stroke:none;stroke-width:.414612;stroke-linecap:round;stroke-linejoin:round;stroke-dasharray:none;stroke-opacity:1"/><circle cx="60.84" cy="123.034" r=".88" style="fill:#fff;fill-opacity:1;stroke:none;stroke-width:.39697;stroke-linecap:round;stroke-linejoin:round;stroke-dasharray:none;stroke-opacity:1"/></g></svg>