<?xml version="1.0" encoding="iso-8859-1"?>
<!-- Generator: Adobe Illustrator 19.0.0, SVG Export Plug-In . SVG Version: 6.00 Build 0)  -->
<svg version="1.1" id="Capa_1" xmlns="http://www.w3.org/2000/svg" xmlns:xlink="http://www.w3.org/1999/xlink" x="0px" y="0px"
	 viewBox="0 0 512 512" style="enable-background:new 0 0 512 512;" xml:space="preserve">
<circle style="fill:#54C0EB;" cx="256" cy="256" r="256"/>
<path style="fill:#F2F2F2;" d="M256,448c-105.6,0-192-86.4-192-192S150.4,64,256,64s192,86.4,192,192S361.6,448,256,448z"/>
<path style="fill:#FF7058;" d="M256,384c-70.4,0-128-57.6-128-128s57.6-128,128-128s128,57.6,128,128S326.4,384,256,384z"/>
<path style="fill:#CDD6E0;" d="M256,320c-35.2,0-64-28.8-64-64s28.8-64,64-64s64,28.8,64,64S291.2,320,256,320z"/>
<path style="fill:#FFD15C;" d="M256,320c-35.2,0-64-28.8-64-64s28.8-64,64-64s64,28.8,64,64S291.2,320,256,320z"/>
<path style="opacity:0.2;fill:#334A5E;enable-background:new    ;" d="M509.867,288c-4.267,32-13.867,61.867-28.8,89.6
	l-13.867-5.333l-18.133-38.4l-192-69.333c-8.533-3.2-12.8-12.8-9.6-21.333s12.8-12.8,21.333-9.6l192,69.333l38.4-18.133L509.867,288
	z"/>
<path style="fill:#40596B;" d="M430.933,103.467l-156.8,156.8c-6.4,6.4-17.067,6.4-23.467,0l0,0c-6.4-6.4-6.4-17.067,0-23.467
	L408.533,81.067c6.4-6.4,17.067-6.4,23.467,0l0,0C437.333,87.467,437.333,97.067,430.933,103.467z"/>
<polygon style="fill:#FF7058;" points="445.867,66.133 395.733,116.267 395.733,50.133 445.867,0 "/>
<polygon style="fill:#F1543F;" points="461.867,116.267 512,66.133 445.867,66.133 395.733,116.267 "/>
<g>
</g>
<g>
</g>
<g>
</g>
<g>
</g>
<g>
</g>
<g>
</g>
<g>
</g>
<g>
</g>
<g>
</g>
<g>
</g>
<g>
</g>
<g>
</g>
<g>
</g>
<g>
</g>
<g>
</g>
</svg>
