<svg id="Capa_1" enable-background="new 0 0 512 512" height="512" viewBox="0 0 512 512" width="512" xmlns="http://www.w3.org/2000/svg"><g><path d="m226 166.599c-8.401 0-15 6.601-15 15v134.401c0 8.399-6.599 15-15 15h-60l45 45c0-8.401 6.599-15 15-15 24.901 0 45-20.101 45-45v-134.401c0-8.399-6.599-15-15-15z" fill="#e63950"/><path d="m286 166.599c8.401 0 15 6.601 15 15v134.401c0 8.399 6.599 15 15 15h60l-45 45c0-8.401-6.599-15-15-15-24.901 0-45-20.101-45-45v-134.401c0-8.399 6.599-15 15-15z" fill="#65d6a9"/><circle cx="91" cy="271" fill="#fdc" r="60"/><path d="m151 271c0-33.091-26.909-60-60-60v120c33.091 0 60-26.909 60-60z" fill="#ffccb3"/><path d="m136 331h-45-46c-24.901 0-45 20.099-45 45v90c0 8.399 6.599 15 15 15h76 75c8.401 0 15-6.601 15-15v-90c0-24.901-20.099-45-45-45z" fill="#ff6c6c"/><path d="m181 466v-90c0-24.901-20.099-45-45-45h-45v150h75c8.401 0 15-6.601 15-15z" fill="#e63950"/><circle cx="421" cy="271" fill="#c86e59" r="60"/><path d="m481 271c0-33.091-26.909-60-60-60v120c33.091 0 60-26.909 60-60z" fill="#a34f3e"/><path d="m467 331h-46-45c-24.901 0-45 20.099-45 45v90c0 8.399 6.599 15 15 15h75 76c8.401 0 15-6.601 15-15v-90c0-24.901-20.099-45-45-45z" fill="#65d6a9"/><path d="m512 466v-90c0-24.901-20.099-45-45-45h-46v150h76c8.401 0 15-6.601 15-15z" fill="#26bfa6"/><path d="m308.207 31c-19.233 0-37.266 8.555-52.207 24.434-14.941-15.879-32.974-24.434-52.207-24.434-38.13 0-66.885 30.688-66.885 71.396 0 42.51 34.175 71.353 81.489 111.255 8.701 7.354 18.003 15.19 27.773 23.672 2.813 2.447 6.329 3.677 9.83 3.677s7.017-1.23 9.829-3.677c9.771-8.481 19.072-16.318 27.773-23.672 47.314-39.902 81.489-68.745 81.489-111.255.001-40.708-28.754-71.396-66.884-71.396z" fill="#ff6c6c"/><path d="m293.603 213.651c47.314-39.902 81.489-68.745 81.489-111.255 0-40.708-28.755-71.396-66.885-71.396-19.233 0-37.266 8.555-52.207 24.434v185.566c3.501 0 7.017-1.23 9.829-3.677 9.771-8.481 19.072-16.318 27.774-23.672z" fill="#e63950"/></g></svg>