<svg id="Layer_1" enable-background="new 0 0 510.382 510.382" height="512" viewBox="0 0 510.382 510.382" width="512" xmlns="http://www.w3.org/2000/svg"><g><g><path d="m61.493 347.6h19.031v72.849h-19.031z" fill="#505f69"/></g><path d="m90.485 123.035c-18.465-1.311-34.496 12.596-35.807 31.06-1.311 18.465 12.596 34.496 31.06 35.807 18.465 1.311 34.496-12.595 35.807-31.06s-12.595-34.496-31.06-35.807z" fill="#ffb69e"/><g id="XMLID_6151_"><path d="m127.873 280.619-53.074-42.935c-6.537-5.288-7.55-14.875-2.262-21.412 5.291-6.538 14.878-7.548 21.412-2.261l45.543 36.843 44.117-21.48c7.56-3.68 16.672-.537 20.354 7.024 3.681 7.56.536 16.672-7.023 20.353l-52.826 25.721c-5.29 2.574-11.625 1.882-16.241-1.853z" fill="#ffb69e"/></g><g id="XMLID_6150_"><path d="m143.253 426.689-10.446-75.804-79.876-11.72c-9.159-2.365-14.667-11.706-12.303-20.865 2.365-9.159 11.705-14.669 20.865-12.302l90.994 14.59c6.727 1.737 11.737 7.364 12.687 14.246l12.015 87.179c1.291 9.371-5.259 18.014-14.629 19.306-9.35 1.289-18.012-5.237-19.307-14.63z" fill="#414b82"/></g><path d="m40.154 324.148 73.608-9.77 6.664-82.296c.885-12.474-8.509-23.303-20.982-24.188l-34.431-2.728c-13.159-.934-24.345 9.553-24.244 22.758z" fill="#64afff"/><g id="XMLID_6144_"><path d="m116.787 361.947h-87.695c-5.752 0-10.605-4.278-11.328-9.984l-17.672-139.549c-.792-6.256 3.638-11.97 9.894-12.763 6.26-.789 11.971 3.637 12.763 9.894l16.406 129.565h77.632c6.307 0 11.419 5.112 11.419 11.418s-5.112 11.419-11.419 11.419z" fill="#5f7382"/></g><g><path d="m106.306 441.481c-2.436 0-4.87-.929-6.729-2.787l-12.434-12.433h-33.357l-12.434 12.433c-3.718 3.716-9.741 3.716-13.457 0s-3.716-9.741 0-13.457l15.221-15.22c1.785-1.784 4.205-2.787 6.729-2.787h41.241c2.523 0 4.943 1.002 6.729 2.787l15.221 15.22c3.716 3.716 3.716 9.741 0 13.457-1.859 1.858-4.294 2.787-6.73 2.787z" fill="#5f7382"/></g><g><g><g><path d="m193.182 441.481c-5.255 0-9.516-4.26-9.516-9.515v-122.644c0-5.255 4.261-9.515 9.516-9.515s9.516 4.26 9.516 9.515v122.644c0 5.255-4.261 9.515-9.516 9.515z" fill="#505f69"/></g></g><g><g><path d="m315.471 441.481c-5.255 0-9.516-4.26-9.516-9.515v-122.644c0-5.255 4.261-9.515 9.516-9.515s9.516 4.26 9.516 9.515v122.644c-.001 5.255-4.262 9.515-9.516 9.515z" fill="#505f69"/></g></g></g><g><g><path d="m239.701 296.504h-49.192c-4.204 0-7.612-3.408-7.612-7.612s3.408-7.612 7.612-7.612h44.143l22.93-54.332c1.636-3.874 6.101-5.687 9.974-4.053 3.873 1.635 5.688 6.1 4.054 9.973l-24.894 58.984c-1.192 2.819-3.954 4.652-7.015 4.652z" fill="#9ca2ad"/></g></g><g><g><path d="m319.363 132.584v-20.364c0-2.219-1.799-4.017-4.017-4.017h-5.575c-.762-2.358-1.711-4.629-2.825-6.804l3.947-3.947c1.569-1.569 1.569-4.112 0-5.681l-14.4-14.4c-1.569-1.569-4.112-1.569-5.681 0l-3.947 3.947c-2.175-1.114-4.446-2.063-6.804-2.825v-5.574c0-2.219-1.799-4.017-4.017-4.017h-20.364c-2.219 0-4.017 1.799-4.017 4.017v5.574c-2.358.762-4.629 1.711-6.804 2.825l-3.947-3.947c-1.569-1.569-4.112-1.569-5.681 0l-14.4 14.4c-1.569 1.569-1.569 4.112 0 5.681l3.947 3.947c-1.114 2.175-2.063 4.446-2.825 6.804h-5.575c-2.219 0-4.017 1.799-4.017 4.017v20.364c0 2.219 1.799 4.017 4.017 4.017h5.575c.762 2.358 1.711 4.629 2.825 6.804l-3.947 3.947c-1.569 1.569-1.569 4.112 0 5.681l14.4 14.4c1.569 1.569 4.112 1.569 5.681 0l3.947-3.947c2.175 1.114 4.446 2.063 6.804 2.825v5.574c0 2.219 1.799 4.017 4.017 4.017h20.364c2.219 0 4.017-1.799 4.017-4.017v-5.574c2.358-.762 4.629-1.711 6.804-2.825l3.947 3.947c1.569 1.569 4.112 1.569 5.681 0l14.4-14.4c1.569-1.569 1.569-4.112 0-5.681l-3.947-3.947c1.114-2.175 2.063-4.446 2.825-6.804h5.575c2.218 0 4.017-1.799 4.017-4.017zm-53.501 16.243c-14.594 0-26.426-11.831-26.426-26.426s11.831-26.426 26.426-26.426c14.594 0 26.426 11.831 26.426 26.426s-11.832 26.426-26.426 26.426z" fill="#9ca2ad"/></g></g><g><g><path d="m332.034 319.218h-155.416c-6.307 0-11.419-5.112-11.419-11.418s5.112-11.418 11.419-11.418h155.416c6.307 0 11.419 5.112 11.419 11.418s-5.112 11.418-11.419 11.418z" fill="#5f7382"/></g></g><g id="XMLID_6146_"><path d="m189.744 266.959-55.713-3.368-13.113-12.83-16.358 4.064-3.764 19.001 15.405 15.153c2.649 2.757 6.24 4.415 10.057 4.646l61.648 3.727c.313.019.624.028.934.028 7.987 0 14.694-6.226 15.183-14.306.506-8.393-5.886-15.608-14.279-16.115z" fill="#ffb69e"/></g><path d="m89.464 219.986c-5.826-6.061-15.463-6.253-21.526-.425-6.062 5.827-6.252 15.465-.425 21.527l33.284 32.739 20.122-23.066z" fill="#4699f2"/><g><path d="m429.857 346.139h19.031v72.849h-19.031z" fill="#505f69"/></g><path d="m419.897 121.573c18.465-1.311 34.496 12.596 35.807 31.06 1.311 18.465-12.596 34.496-31.06 35.807-18.465 1.311-34.496-12.595-35.807-31.06s12.595-34.496 31.06-35.807z" fill="#80391b"/><g id="XMLID_765_"><path d="m367.129 426.689 10.446-75.804 76.069-12.747c9.159-2.365 14.667-11.706 12.303-20.865-2.365-9.159-11.705-14.669-20.865-12.302l-87.188 15.617c-6.727 1.737-11.737 7.364-12.687 14.246l-12.015 87.179c-1.291 9.371 5.259 18.014 14.629 19.306 9.351 1.289 18.013-5.237 19.308-14.63z" fill="#748488"/></g><path d="m466.495 322.491-74.609-7.992-1.93-83.879c-.885-12.474 8.509-23.303 20.982-24.188l38.431-2.728c13.159-.934 24.345 9.553 24.244 22.758z" fill="#e64937"/><g id="XMLID_763_"><path d="m393.595 360.485h87.695c5.752 0 10.605-4.278 11.328-9.984l17.672-139.549c.792-6.256-3.638-11.97-9.894-12.763-6.26-.789-11.971 3.637-12.763 9.894l-16.407 129.565h-77.632c-6.307 0-11.419 5.112-11.419 11.418.001 6.306 5.113 11.419 11.42 11.419z" fill="#5f7382"/></g><g><path d="m404.075 441.481c2.436 0 4.87-.929 6.729-2.787l12.434-12.433h33.358l12.434 12.433c3.718 3.716 9.741 3.716 13.457 0s3.716-9.741 0-13.457l-15.221-15.22c-1.785-1.784-4.205-2.787-6.729-2.787h-41.241c-2.523 0-4.943 1.002-6.729 2.787l-15.221 15.22c-3.716 3.716-3.716 9.741 0 13.457 1.859 1.858 4.294 2.787 6.729 2.787z" fill="#5f7382"/></g><g id="XMLID_762_"><path d="m320.638 265.497 55.713-3.368 13.113-12.83 16.358 4.064 3.764 19.001-15.405 15.153c-2.649 2.757-6.24 4.415-10.057 4.646l-61.648 3.727c-.313.019-.624.028-.934.028-7.987 0-14.694-6.226-15.183-14.306-.507-8.392 5.886-15.608 14.279-16.115z" fill="#80391b"/></g><path d="m420.918 218.525c5.826-6.061 15.463-6.253 21.526-.425 6.062 5.827 6.252 15.465.425 21.527l-33.284 32.739-20.122-23.066z" fill="#d13d2c"/></g></svg>