<svg xmlns="http://www.w3.org/2000/svg" xml:space="preserve" width="389.759" height="341.529" viewBox="0 0 103.124 90.363"><path d="M134.3 32.672a12.17 12.17 0 0 1-1.243 6.717c-.76 1.498-1.827 2.828-2.534 4.352-.354.761-.616 1.574-.682 2.411-.066.837.072 1.702.477 2.438.529.96 1.463 1.632 2.434 2.14.971.51 2.01.891 2.948 1.457a8.692 8.692 0 0 1 3.372 3.75 8.692 8.692 0 0 1 .7 4.993" style="fill:none;fill-opacity:1;stroke:#28072f;stroke-width:2.792;stroke-linecap:round;stroke-linejoin:round;stroke-dasharray:none;stroke-dashoffset:37.8522;stroke-opacity:1" transform="rotate(-13.261 -50.623 450.561)"/><path d="M111.516 39.221c-5.512.758-9.826 9.083-9.826 19.307v20.156c0 10.728 4.749 19.364 10.647 19.364h2.871c5.898 0 10.647-8.636 10.647-19.364l.135-5.951 3.664-1.468c1.607 2.283 4.336 3.263 7.096 2.845 2.76-.421 5.47-2.229 6.326-4.886l14.121-2.147c1.607 2.283 4.93 3.173 7.69 2.755 2.76-.421 5.074-2.168 5.93-4.826l3.933.313 2.034 6.532c3.188 10.243 10.154 16.187 15.786 14.434l2.74-.853c5.632-1.753 7.6-11.41 4.411-21.653l-5.99-19.245c-3.19-10.243-10.29-17.077-15.922-15.324l-2.74.853c-1.993.62-3.526 2.231-4.536 4.506l-49.656 7.55c-1.64-1.872-3.582-2.954-5.67-2.954h-2.87c-.276 0-.55.019-.82.056z" style="fill:#d07cbd;fill-opacity:1;stroke:#28072f;stroke-width:2.502;stroke-linecap:round;stroke-linejoin:round;stroke-dasharray:60.048,5.004;stroke-dashoffset:0;stroke-opacity:1" transform="rotate(-4.616 -47.365 1299.233)"/><g transform="rotate(-13.261 -50.623 450.561)"><circle cx="167.089" cy="72.466" r="2.378" style="fill:#ff6fea;fill-opacity:1;stroke:#28072f;stroke-width:1.4737;stroke-linecap:round;stroke-linejoin:round;stroke-dasharray:35.3688,2.9474;stroke-dashoffset:22.5476;stroke-opacity:1"/><circle cx="172.69" cy="77.155" r="2.378" style="fill:#7d6fff;fill-opacity:1;stroke:#28072f;stroke-width:1.4737;stroke-linecap:round;stroke-linejoin:round;stroke-dasharray:35.3688,2.9474;stroke-dashoffset:22.5476;stroke-opacity:1"/><circle cx="172.69" cy="67.373" r="2.378" style="fill:#c1ff6f;fill-opacity:1;stroke:#28072f;stroke-width:1.474;stroke-linecap:round;stroke-linejoin:round;stroke-dasharray:35.376,2.948;stroke-dashoffset:22.5522;stroke-opacity:1"/><circle cx="177.926" cy="72.466" r="2.378" style="fill:#ff6f74;fill-opacity:1;stroke:#28072f;stroke-width:1.4737;stroke-linecap:round;stroke-linejoin:round;stroke-dasharray:35.3688,2.9474;stroke-dashoffset:22.5476;stroke-opacity:1"/></g><g transform="rotate(-13.261 -50.623 450.561)"><circle cx="124.257" cy="85.12" r="6.119" style="fill:#28072f;fill-opacity:1;stroke:none;stroke-width:1.63334;stroke-linecap:round;stroke-linejoin:round;stroke-dasharray:none;stroke-dashoffset:0;stroke-opacity:1"/><path d="M-25.037-145.418a4.668 4.323 0 0 1-1.229-4.975" style="fill:none;fill-opacity:1;stroke:#fff;stroke-width:1.17631;stroke-linecap:round;stroke-linejoin:round;stroke-dasharray:none;stroke-dashoffset:0;stroke-opacity:1" transform="rotate(132.794)"/></g><g transform="rotate(-13.261 -50.623 450.561)"><circle cx="152.314" cy="85.12" r="6.119" style="fill:#28072f;fill-opacity:1;stroke:none;stroke-width:1.63334;stroke-linecap:round;stroke-linejoin:round;stroke-dasharray:none;stroke-dashoffset:0;stroke-opacity:1"/><path d="M-44.208-166.125a4.668 4.323 0 0 1-1.23-4.975" style="fill:none;fill-opacity:1;stroke:#fff;stroke-width:1.17631;stroke-linecap:round;stroke-linejoin:round;stroke-dasharray:none;stroke-dashoffset:0;stroke-opacity:1" transform="rotate(132.794)"/></g><g transform="rotate(-13.261 -50.623 450.561)"><rect width="17.389" height="35.965" x="59.088" y="-156.268" rx="0" ry="2.285" style="fill:#28072f;fill-opacity:1;stroke:none;stroke-width:1.65873;stroke-linecap:round;stroke-linejoin:round;stroke-dasharray:none;stroke-dashoffset:35.8928;stroke-opacity:1" transform="rotate(90)"/><path d="M123.831 61.646h28.909" style="fill:none;fill-opacity:1;stroke:#fff;stroke-width:1.356;stroke-linecap:round;stroke-linejoin:round;stroke-dasharray:none;stroke-dashoffset:0;stroke-opacity:1"/></g><g transform="rotate(-13.261 -50.623 450.561)"><rect width="2.92" height="5.232" x="157.771" y="62.378" ry=".756" style="fill:#28072f;fill-opacity:1;stroke:none;stroke-width:.413008;stroke-linecap:round;stroke-linejoin:round;stroke-dasharray:17.6389,1.46991;stroke-dashoffset:0;stroke-opacity:1"/><rect width="1.674" height=".822" x="158.394" y="62.953" ry=".411" style="fill:#fff;fill-opacity:1;stroke:none;stroke-width:1.4196;stroke-linecap:round;stroke-linejoin:round;stroke-dasharray:none;stroke-dashoffset:0;stroke-opacity:1"/></g><g transform="rotate(-13.261 -50.623 450.561)"><rect width="2.92" height="5.232" x="115.88" y="62.378" ry=".756" style="fill:#28072f;fill-opacity:1;stroke:none;stroke-width:.413008;stroke-linecap:round;stroke-linejoin:round;stroke-dasharray:17.6389,1.46991;stroke-dashoffset:0;stroke-opacity:1"/><rect width="1.674" height=".822" x="116.503" y="62.953" ry=".411" style="fill:#fff;fill-opacity:1;stroke:none;stroke-width:1.4196;stroke-linecap:round;stroke-linejoin:round;stroke-dasharray:none;stroke-dashoffset:0;stroke-opacity:1"/></g><g transform="rotate(-13.261 -50.623 450.561)"><path d="M103.146 65.329c-.669 0-1.207.538-1.207 1.207v2.418H99.48c-.647 0-1.168.52-1.168 1.167v4.286c0 .647.52 1.167 1.168 1.167h2.458v2.418c0 .669.538 1.207 1.207 1.207h4.206c.669 0 1.207-.538 1.207-1.207v-2.418h2.457c.647 0 1.168-.52 1.168-1.167V70.12c0-.647-.52-1.167-1.168-1.167h-2.457v-2.418c0-.67-.538-1.207-1.207-1.207z" style="fill:#250c32;fill-opacity:1;stroke:none;stroke-width:1.165;stroke-linecap:round;stroke-linejoin:round;stroke-dasharray:5.825,10.485;stroke-dashoffset:6.291;stroke-opacity:1"/><rect width="1.56" height="1.38" x="106.373" y="66.048" rx=".396" ry=".509" style="fill:#fff;fill-opacity:1;stroke:none;stroke-width:.785106;stroke-linecap:round;stroke-linejoin:round;stroke-dasharray:3.92552,7.06595;stroke-dashoffset:4.23957;stroke-opacity:1"/></g></svg>