<?xml version="1.0" encoding="iso-8859-1"?>
<!-- Generator: Adobe Illustrator 19.0.0, SVG Export Plug-In . SVG Version: 6.00 Build 0)  -->
<svg version="1.1" id="Capa_1" xmlns="http://www.w3.org/2000/svg" xmlns:xlink="http://www.w3.org/1999/xlink" x="0px" y="0px"
	 viewBox="0 0 511.999 511.999" style="enable-background:new 0 0 511.999 511.999;" xml:space="preserve">
<path style="fill:#FF9923;" d="M503.721,238.241c5.092-2.544,8.273-7.424,8.276-13.363l-0.002-149.774
	c0-5.94-3.184-10.821-8.273-13.365l-35.64-17.821L383.649,1.49c-4.243-2.122-9.123-1.91-13.367,0.211L250.211,61.526
	c-5.092,2.544-8.273,7.849-8.273,13.365l0.211,96.948c-0.211,3.608,1.274,7.214,3.607,9.973l39.458,44.975l43.701,49.641
	c1.274,1.699,2.76,2.76,4.457,3.607l36.911,18.243c4.245,2.125,9.123,2.334,13.367,0.214L503.721,238.241z"/>
<path style="fill:#FE8821;" d="M328.914,276.428l-43.701-49.641L468.082,43.918l35.64,17.821c5.09,2.544,8.273,7.424,8.273,13.365
	l0.001,149.774c-0.003,5.938-3.184,10.819-8.276,13.363l-120.072,60.251c-4.244,2.121-9.121,1.911-13.367-0.214l-36.911-18.243
	C331.674,279.188,330.188,278.127,328.914,276.428z"/>
<path style="fill:#57555C;" d="M312.724,218.554c-1.992-8.027,2.9-16.173,10.929-18.18l79.722-19.923
	c8.027-2.109,16.173,2.871,18.194,10.914c1.992,8.027-2.9,16.173-10.929,18.18l-79.722,19.923
	C322.896,231.474,314.729,226.612,312.724,218.554z"/>
<g>
	<path style="fill:#787780;" d="M294.151,199.981c8.027,1.992,16.173-2.9,18.18-10.929l19.923-79.722
		c2.109-8.027-2.871-16.173-10.914-18.194c-8.027-1.992-16.173,2.9-18.18,10.929l-19.923,79.722
		C281.231,189.81,286.094,197.976,294.151,199.981z"/>
	<path style="fill:#787780;" d="M70.099,463.116L25.67,507.544c-5.939,5.939-15.274,5.94-21.214,0s-5.939-15.275,0-21.214
		l44.429-44.429c5.728-5.728,15.274-5.94,21.214,0C76.039,447.842,75.827,457.387,70.099,463.116z"/>
</g>
<path style="fill:#57555C;" d="M70.099,463.116L25.67,507.544c-5.939,5.939-15.274,5.94-21.214,0L70.1,441.9
	C76.039,447.842,75.827,457.387,70.099,463.116z"/>
<path style="fill:#787780;" d="M206.931,451.447c-8.487,6.787-17.181,11.671-26.519,16.336l-38.186-3.818l-92.707-92.707
	l-5.302-39.669c4.24-9.337,9.548-18.032,16.336-26.519c7.847-10.397,11.031-13.154,19.94-22.064l41.791,9.971l109.042,109.042
	l-2.333,29.489C220.085,440.416,217.117,443.81,206.931,451.447z"/>
<path style="fill:#57555C;" d="M228.995,431.507c-8.91,8.91-11.879,12.304-22.064,19.94c-8.487,6.787-17.181,11.671-26.519,16.336
	l-38.186-3.818l-47.096-47.096l75.523-75.523l60.673,60.673L228.995,431.507z"/>
<path style="fill:#FEDB41;" d="M180.414,467.782c-39.458,18.244-85.917,18.881-127.711-1.699c-1.696-0.847-2.755-1.906-3.817-2.968
	c-1.062-1.062-2.121-2.121-2.968-3.817c-20.58-40.945-20.367-88.253-1.699-127.712L180.414,467.782z"/>
<path style="fill:#FCBF29;" d="M112.316,399.685l68.098,68.098c-39.458,18.244-85.917,18.881-127.711-1.699
	c-1.696-0.847-2.755-1.906-3.817-2.968L112.316,399.685z"/>
<path style="fill:#FEDB41;" d="M228.995,431.507L80.494,283.005c30.126-30.126,22.062-22.912,93.768-92.919
	c16.759-18.033,39.034-29.701,63.644-32.671c31.819-3.82,63.853,6.999,86.554,30.126c23.125,22.701,33.945,54.735,30.126,86.554
	C349.28,320.978,324.672,335.829,228.995,431.507z"/>
<path style="fill:#FCBF29;" d="M228.995,431.507l-74.25-74.25L324.46,187.541c23.125,22.701,33.945,54.735,30.126,86.554
	C349.28,320.978,324.672,335.829,228.995,431.507z"/>
<path style="fill:#CAE8F9;" d="M351.191,345.375L219.45,292.551L166.626,160.81c-18.034-45.19-76.372-57.279-110.74-22.912
	c-31.822,31.822-24.61,85.281,15.063,107.132l126.013,70.007l70.007,126.013c3.184,5.729,7.213,11.034,11.456,15.275
	c25.668,25.668,68.522,26.943,95.678-0.212C408.47,421.747,396.38,363.409,351.191,345.375z"/>
<path style="fill:#B7E0F6;" d="M374.102,456.114c-27.156,27.156-70.009,25.88-95.678,0.212c-4.242-4.242-8.271-9.546-11.456-15.275
	l-70.006-126.013l22.487-22.487l131.741,52.824C396.38,363.409,408.47,421.747,374.102,456.114z"/>
<g>
</g>
<g>
</g>
<g>
</g>
<g>
</g>
<g>
</g>
<g>
</g>
<g>
</g>
<g>
</g>
<g>
</g>
<g>
</g>
<g>
</g>
<g>
</g>
<g>
</g>
<g>
</g>
<g>
</g>
</svg>
