<?xml version="1.0" encoding="UTF-8" standalone="no"?>
<svg
   xmlns:dc="http://purl.org/dc/elements/1.1/"
   xmlns:cc="http://creativecommons.org/ns#"
   xmlns:rdf="http://www.w3.org/1999/02/22-rdf-syntax-ns#"
   xmlns:svg="http://www.w3.org/2000/svg"
   xmlns="http://www.w3.org/2000/svg"
   xmlns:sodipodi="http://sodipodi.sourceforge.net/DTD/sodipodi-0.dtd"
   xmlns:inkscape="http://www.inkscape.org/namespaces/inkscape"
   id="Layer_1"
   data-name="Layer 1"
   viewBox="0 0 141.00001 301"
   version="1.1"
   sodipodi:docname="MongoDB.svg"
   width="141"
   height="301"
   inkscape:version="0.92.4 (5da689c313, 2019-01-14)">
  <metadata
     id="metadata33">
    <rdf:RDF>
      <cc:Work
         rdf:about="">
        <dc:format>image/svg+xml</dc:format>
        <dc:type
           rdf:resource="http://purl.org/dc/dcmitype/StillImage" />
        <dc:title>MongoDB_Logo_FullColorBlack_RGB</dc:title>
      </cc:Work>
    </rdf:RDF>
  </metadata>
  <sodipodi:namedview
     pagecolor="#ffffff"
     bordercolor="#666666"
     borderopacity="1"
     objecttolerance="10"
     gridtolerance="10"
     guidetolerance="10"
     inkscape:pageopacity="0"
     inkscape:pageshadow="2"
     inkscape:window-width="1920"
     inkscape:window-height="1017"
     id="namedview31"
     showgrid="false"
     inkscape:zoom="2.918394"
     inkscape:cx="246.69575"
     inkscape:cy="240.70487"
     inkscape:window-x="-8"
     inkscape:window-y="-8"
     inkscape:window-maximized="1"
     inkscape:current-layer="Layer_1" />
  <defs
     id="defs4">
    <style
       id="style2">.cls-1{fill:#10aa50;}.cls-2{fill:#b8c4c2;}.cls-3{fill:#12924f;}.cls-4{fill:#21313c;}</style>
  </defs>
  <title
     id="title6">MongoDB_Logo_FullColorBlack_RGB</title>
  <path
     class="cls-1"
     d="m 132.78166,119.55101 c -15.31,-67.539998 -47.22,-85.519998 -55.36,-98.229998 a 144.57,144.57 0 0 1 -8.9,-17.42 c -0.43,6.000001 -1.22,9.78 -6.32,14.33 -10.24,9.13 -53.73,44.57 -57.3899999,121.309998 -3.4100001,71.55 52.5999999,115.67 59.9999999,120.23 5.69,2.8 12.62,0.06 16,-2.51 27,-18.53 63.89,-67.93 52,-137.71"
     id="path8"
     inkscape:connector-curvature="0"
     style="fill:#10aa50" />
  <path
     class="cls-2"
     d="m 70.84166,221.67101 c -1.41,17.71 -2.42,28 -6,38.12 0,0 2.35,16.86 4,34.72 h 5.84 a 324.73,324.73 0 0 1 6.37,-37.39 c -7.56,-3.72 -9.92,-19.91 -10.21,-35.45 z"
     id="path10"
     inkscape:connector-curvature="0"
     style="fill:#b8c4c2" />
  <path
     class="cls-3"
     d="m 81.04166,257.13101 v 0 c -7.64,-3.53 -9.85,-20.06 -10.19,-35.46 a 725.83,725.83 0 0 0 1.65,-76.35 c -0.4,-13.36 0.19,-123.739998 -3.29,-139.899998 a 134.29,134.29 0 0 0 8.21,15.89 c 8.14,12.72 40.06,30.7 55.36,98.239998 11.92,69.66 -24.77,118.93 -51.74,137.58 z"
     id="path12"
     inkscape:connector-curvature="0"
     style="fill:#12924f" />
</svg>
