<svg id="Capa_1" enable-background="new 0 0 497.008 497.008" height="512" viewBox="0 0 497.008 497.008" width="512" xmlns="http://www.w3.org/2000/svg"><g><path d="m472.304 187.054h-13.03c6.67 0 12.7 2.7 17.08 7.07 4.45 4.46 7.17 10.65 7.06 17.48-.21 13.28-11.42 23.76-24.69 23.76h-13.03c6.66 0 12.71 2.7 17.08 7.07 4.45 4.46 7.18 10.65 7.07 17.48-.22 13.27-11.42 23.75-24.69 23.75h-124.86l-55.41 55.41-36.63-36.63 137.78-137.78c16.6-16.6 39.11-25.93 62.58-25.93h44.23c6.68 0 12.72 2.71 17.09 7.08 4.46 4.47 7.19 10.68 7.07 17.52-.24 13.26-11.44 23.72-24.7 23.72z" fill="#ecf4ff"/><path d="m497.004 163.334c-.06 3.09-.71 6.03-1.85 8.72-3.73 8.85-12.68 15-22.85 15h-13.03c6.67 0 12.7 2.7 17.08 7.07 4.45 4.46 7.17 10.65 7.06 17.48-.05 3.11-.7 6.06-1.85 8.76-3.72 8.85-12.67 15-22.84 15h-13.03c6.66 0 12.71 2.7 17.08 7.07 4.45 4.46 7.18 10.65 7.07 17.48-.22 13.27-11.42 23.75-24.69 23.75h-28.66c13.27 0 24.47-10.48 24.68-23.75.11-6.83-2.61-13.02-7.07-17.48-4.37-4.37-10.41-7.07-17.08-7.07h2.25c-4.462 0-8.018-3.903-7.438-8.478.479-3.783 3.878-6.522 7.691-6.522h26.168c4.852 0 8.96-3.816 9.057-8.667.001-.031.001-.062.002-.093.11-6.83-2.62-13.02-7.07-17.48-4.38-4.37-10.41-7.07-17.08-7.07h-11.077c-3.813 0-7.212-2.739-7.691-6.522-.58-4.576 2.976-8.478 7.438-8.478h40.014c4.834 0 8.931-3.794 9.044-8.627.001-.031.001-.062.002-.093.12-6.84-2.61-13.05-7.07-17.52-4.37-4.37-10.41-7.08-17.08-7.08h28.66c6.68 0 12.72 2.71 17.09 7.08 4.46 4.47 7.19 10.68 7.07 17.52z" fill="#d2e5fd"/><path d="m268.754 302.444-36.63 36.63-17.5-17.5-37.91-37.91h-124.86c-13.27 0-24.47-10.48-24.69-23.75-.11-6.83 2.62-13.02 7.07-17.48 4.37-4.37 10.42-7.07 17.08-7.07h-13.03c-10.17 0-19.12-6.15-22.84-15-1.15-2.7-1.8-5.65-1.85-8.76-.11-6.83 2.61-13.02 7.06-17.48 4.38-4.37 10.41-7.07 17.08-7.07h-13.03c-10.17 0-19.12-6.15-22.85-15-1.14-2.69-1.79-5.63-1.85-8.72-.12-6.84 2.61-13.05 7.07-17.52 4.37-4.37 10.41-7.08 17.09-7.08h44.23c23.47 0 45.98 9.33 62.58 25.93z" fill="#ecf4ff"/><path d="m268.754 302.444-36.63 36.63-17.5-17.5 19.13-19.13-137.78-137.78c-16.6-16.6-39.11-25.93-62.58-25.93h35c23.47 0 45.98 9.33 62.58 25.93z" fill="#d2e5fd"/><path d="m363.184 289.884-92.59 92.59c-9.54 9.54-23.71 11.62-35.28 6.24-3.22-1.5-6.24-3.58-8.9-6.24l-92.59-92.59c-31.81-31.81-32.73-83.64-1.15-115.69 28.66-29.09 73.67-32.1 105.72-9.03 6.02 4.33 14.2 4.33 20.22 0 10.22-7.35 21.76-12.06 33.66-14.12 25.43-4.38 52.54 3.33 72.06 23.15 31.58 32.05 30.66 83.88-1.15 115.69z" fill="#fe646f"/><path d="m363.184 289.884-92.59 92.59c-9.54 9.54-23.71 11.62-35.28 6.24 3.23-1.5 6.25-3.58 8.91-6.24l92.59-92.59c31.81-31.81 32.73-83.64 1.15-115.69-11.38-11.55-27.84-18.77-45.69-23.15 25.43-4.38 52.54 3.33 72.06 23.15 31.58 32.05 30.66 83.88-1.15 115.69z" fill="#fd4755"/><g><path d="m307.904 49.604h-118.8c-16.6 0-30.1 13.5-30.1 30.1 0 16.59 13.5 30.09 30.1 30.09h118.8c16.6 0 30.1-13.5 30.1-30.09 0-16.6-13.5-30.1-30.1-30.1zm0 45.19h-118.8c-8.33 0-15.1-6.77-15.1-15.09 0-8.33 6.77-15.1 15.1-15.1h118.8c8.33 0 15.1 6.77 15.1 15.1 0 8.32-6.77 15.09-15.1 15.09z" fill="#fef056"/></g><g><path d="m128.202 447.404c-1.919 0-3.839-.732-5.303-2.197-2.929-2.929-2.929-7.678 0-10.606l28.991-28.991c2.929-2.929 7.678-2.929 10.606 0 2.929 2.929 2.929 7.678 0 10.606l-28.991 28.991c-1.464 1.464-3.384 2.197-5.303 2.197z" fill="#fef056"/></g><g><path d="m374.652 447.404c-1.919 0-3.839-.732-5.303-2.197l-28.991-28.991c-2.929-2.929-2.929-7.678 0-10.606 2.929-2.929 7.678-2.929 10.606 0l28.991 28.991c2.929 2.929 2.929 7.678 0 10.606-1.464 1.464-3.384 2.197-5.303 2.197z" fill="#fef056"/></g><g><path d="m419.76 369.284c-.643 0-1.296-.083-1.946-.257l-39.603-10.611c-4.001-1.072-6.375-5.185-5.304-9.186 1.072-4.001 5.191-6.375 9.186-5.304l39.603 10.611c4.001 1.072 6.375 5.185 5.304 9.186-.898 3.351-3.929 5.561-7.24 5.561z" fill="#fef056"/></g><g><path d="m83.094 369.284c-3.312 0-6.342-2.21-7.24-5.561-1.072-4.001 1.303-8.113 5.304-9.186l39.603-10.611c3.999-1.07 8.113 1.303 9.186 5.304 1.072 4.001-1.303 8.113-5.304 9.186l-39.603 10.611c-.65.174-1.304.257-1.946.257z" fill="#fef056"/></g><g><path d="m81.674 179.554c0 4.14-3.36 7.5-7.5 7.5h-49.47c-10.17 0-19.12-6.15-22.85-15h72.32c4.14 0 7.5 3.36 7.5 7.5z" fill="#d2e5fd"/></g><g><path d="m81.674 227.864c0 4.14-3.36 7.5-7.5 7.5h-35.89c-10.17 0-19.12-6.15-22.84-15h58.73c4.14 0 7.5 3.36 7.5 7.5z" fill="#d2e5fd"/></g></g></svg>