<?xml version="1.0" encoding="UTF-8" standalone="no"?>
<!-- Generator: Adobe Illustrator 19.0.0, SVG Export Plug-In . SVG Version: 6.00 Build 0)  -->

<svg
   xmlns:dc="http://purl.org/dc/elements/1.1/"
   xmlns:cc="http://creativecommons.org/ns#"
   xmlns:rdf="http://www.w3.org/1999/02/22-rdf-syntax-ns#"
   xmlns:svg="http://www.w3.org/2000/svg"
   xmlns="http://www.w3.org/2000/svg"
   xmlns:sodipodi="http://sodipodi.sourceforge.net/DTD/sodipodi-0.dtd"
   xmlns:inkscape="http://www.inkscape.org/namespaces/inkscape"
   version="1.1"
   id="Layer_1"
   x="0px"
   y="0px"
   viewBox="0 0 512 512"
   style="enable-background:new 0 0 512 512;"
   xml:space="preserve"
   sodipodi:docname="YAML.svg"
   inkscape:version="0.92.4 (5da689c313, 2019-01-14)"><metadata
   id="metadata55"><rdf:RDF><cc:Work
       rdf:about=""><dc:format>image/svg+xml</dc:format><dc:type
         rdf:resource="http://purl.org/dc/dcmitype/StillImage" /></cc:Work></rdf:RDF></metadata><defs
   id="defs53" /><sodipodi:namedview
   pagecolor="#ffffff"
   bordercolor="#666666"
   borderopacity="1"
   objecttolerance="10"
   gridtolerance="10"
   guidetolerance="10"
   inkscape:pageopacity="0"
   inkscape:pageshadow="2"
   inkscape:window-width="1920"
   inkscape:window-height="1017"
   id="namedview51"
   showgrid="false"
   inkscape:zoom="1.3037281"
   inkscape:cx="111.64846"
   inkscape:cy="215.68197"
   inkscape:window-x="-8"
   inkscape:window-y="-8"
   inkscape:window-maximized="1"
   inkscape:current-layer="Layer_1" />
<path
   style="fill:#E2E5E7;"
   d="M128,0c-17.6,0-32,14.4-32,32v448c0,17.6,14.4,32,32,32h320c17.6,0,32-14.4,32-32V128L352,0H128z"
   id="path2" />
<path
   style="fill:#B0B7BD;"
   d="M384,128h96L352,0v96C352,113.6,366.4,128,384,128z"
   id="path4" />
<polygon
   style="fill:#CAD1D8;"
   points="480,224 384,128 480,128 "
   id="polygon6" />
<path
   style="fill:#9e50e8;fill-opacity:1"
   d="M416,416c0,8.8-7.2,16-16,16H48c-8.8,0-16-7.2-16-16V256c0-8.8,7.2-16,16-16h352c8.8,0,16,7.2,16,16  V416z"
   id="path8" />
<g
   aria-label="YAML"
   transform="translate(-22.08835,9.2443661)"
   style="font-style:normal;font-variant:normal;font-weight:normal;font-stretch:normal;font-size:90.66666412px;line-height:1.25;font-family:'Multicolore Pro';-inkscape-font-specification:'Multicolore Pro';letter-spacing:0px;word-spacing:0px;fill:#ffffff;fill-opacity:1;stroke:none"
   id="flowRoot862"><path
     d="m 162.60407,287.71301 c -3.35467,-2.448 -8.16,-1.72266 -10.608,1.72267 l -24.38933,33.54666 -24.38933,-33.54666 c -2.53867,-3.44533 -7.253337,-4.17067 -10.608004,-1.72267 -3.354666,2.448 -4.170666,7.16267 -1.722667,10.608 l 29.104001,39.984 v 21.39733 c 0,4.17067 3.44533,7.52534 7.616,7.52534 4.17067,0 7.52533,-3.35467 7.52533,-7.52534 v -21.39733 l 29.104,-39.984 c 2.448,-3.44533 1.72267,-8.16 -1.632,-10.608 z"
     style=""
     id="path835" /><path
     d="m 241.16107,356.25701 -33.36533,-65.73333 c 0,0.0907 0.0907,0.18133 0.0907,0.272 -0.45333,-1.17867 -1.26933,-2.176 -2.35733,-2.992 -0.0907,-0.0907 -0.0907,-0.0907 -0.18133,-0.18133 -0.18134,-0.0907 -0.272,-0.18134 -0.36267,-0.18134 -0.18133,-0.0907 -0.36267,-0.18133 -0.45333,-0.272 -0.0907,-0.0907 -0.0907,-0.0907 -0.0907,-0.0907 0,0 0,0 0,0 -0.272,-0.0907 -0.45333,-0.18134 -0.72533,-0.272 0,0 0,0 0,0 -0.45334,-0.18134 -0.90667,-0.36267 -1.36,-0.45334 -0.0907,0 -0.0907,0 -0.18134,0 -0.18133,0 -0.36266,0 -0.54399,-0.0907 -0.0907,0 -0.0907,0 -0.0907,0 -0.18133,0 -0.36267,0 -0.544,0 0,0 -0.0907,0 -0.0907,0 -0.0907,0 -0.18133,0 -0.18133,0 -2.08533,0.0907 -3.808,0.99733 -5.07733,2.26666 -0.0907,0 -0.0907,0.0907 -0.0907,0.0907 -0.18133,0.18133 -0.36267,0.272 -0.45333,0.45333 0,0.0907 0,0.0907 -0.0907,0.0907 -0.0907,0.18133 -0.18133,0.36267 -0.272,0.45333 -0.0907,0.0907 -0.0907,0.0907 -0.18133,0.18134 -0.0907,0.18133 -0.18134,0.36266 -0.272,0.544 0,0 0,0.0907 0,0.0907 l -33.456,65.824 c -2.62934,5.07733 1.088,10.97067 6.70933,10.97067 2.72,0 5.44,-1.45067 6.8,-4.08 l 5.25867,-10.42667 h 42.79466 l 5.34933,10.42667 c 1.81334,3.71733 6.43734,5.168 10.15467,3.264 3.71733,-1.81334 5.168,-6.43734 3.264,-10.15467 z m -33.184,-59.38666 c -0.0907,0.0907 -0.18133,0.272 -0.272,0.36266 0.0907,-0.0907 0.18133,-0.272 0.272,-0.36266 z m 0.0907,-0.36267 c 0,0 0,-0.0907 0.0907,-0.0907 -0.0907,0 -0.0907,0.0907 -0.0907,0.0907 0,0 0,0 0,0 z m 0.0907,-5.07733 c 0,-0.0907 -0.0907,-0.18134 -0.0907,-0.272 0,0.0907 0.0907,0.18133 0.0907,0.272 0,0 0,0 0,0 z m 0.0907,4.53333 c 0,0 0,0 0,0.0907 0,-0.0907 0,-0.0907 0,-0.0907 z m -0.18133,-4.896 c 0,0 -0.0907,0 -0.0907,-0.0907 0,0 0,-0.0907 0,-0.18133 0,0.0907 0,0.18133 0.0907,0.272 z m -7.072,19.49333 13.69066,27.01867 h -27.38133 z"
     style=""
     id="path837" /><path
     d="m 330.80206,293.96901 v -0.0907 c 0,-0.0907 0,-0.0907 0,-0.18134 0,0 0,0 0,0 0,-0.0907 0,-0.18133 0,-0.272 0,0 0,-0.0907 0,-0.18133 -0.0907,-0.0907 -0.0907,-0.18133 -0.0907,-0.272 0,-0.18133 0,-0.272 0,-0.36267 -0.0907,-0.18133 -0.0907,-0.272 -0.0907,-0.45333 0,-0.0907 -0.0907,-0.18133 -0.0907,-0.272 0,-0.0907 -0.0907,-0.272 -0.0907,-0.36267 -0.0907,-0.0907 -0.0907,-0.272 -0.18133,-0.36266 0,-0.0907 -0.0907,-0.18134 -0.0907,-0.36267 -0.0907,-0.0907 -0.0907,-0.18133 -0.18133,-0.272 0,-0.18133 -0.0907,-0.272 -0.18133,-0.36267 0,-0.0907 -0.0907,-0.272 -0.18134,-0.36266 -0.0907,-0.0907 -0.0907,-0.18134 -0.18133,-0.272 -0.0907,-0.0907 -0.18133,-0.18134 -0.272,-0.272 0,-0.0907 -0.0907,-0.18134 -0.18133,-0.272 -0.0907,-0.0907 -0.18134,-0.18134 -0.272,-0.272 -0.0907,-0.0907 -0.18134,-0.18134 -0.272,-0.272 0,-0.0907 -0.0907,-0.18134 -0.18134,-0.18134 -0.0907,-0.0907 -0.0907,-0.18133 -0.18133,-0.272 0,0 -0.0907,0 -0.0907,0 -1.088,-0.90666 -2.35733,-1.54133 -3.89866,-1.632 -0.0907,0 -0.0907,0 -0.18134,0 -0.0907,-0.0907 -0.0907,-0.0907 -0.18133,-0.0907 -0.0907,0 -0.18133,0 -0.18133,0 -0.18134,0 -0.272,0 -0.36267,0 0,0 0,0 0,0 0,0 -0.0907,0 -0.0907,0 -0.18133,0 -0.272,0 -0.45333,0 0,0 0,0 0,0 -0.0907,0 -0.0907,0 -0.18133,0.0907 -0.0907,0 -0.0907,0 -0.18134,0 -0.0907,0 -0.18133,0 -0.36266,0 -0.0907,0.0907 -0.18134,0.0907 -0.36267,0.0907 -0.0907,0 -0.18133,0.0907 -0.272,0.0907 -0.18133,0 -0.272,0.0907 -0.45333,0.0907 -0.0907,0.0907 -0.18134,0.0907 -0.272,0.18134 -0.0907,0 -0.272,0.0907 -0.36267,0.0907 -0.0907,0.0907 -0.272,0.0907 -0.36267,0.18134 -0.0907,0 -0.18133,0.0907 -0.272,0.18133 -0.18133,0 -0.272,0.0907 -0.36266,0.18133 -0.0907,0.0907 -0.18134,0.0907 -0.272,0.18134 -0.0907,0.0907 -0.272,0.18133 -0.36267,0.272 -0.0907,0 -0.18133,0.0907 -0.18133,0.18133 -0.18134,0.0907 -0.272,0.18133 -0.36267,0.272 0,0 0,0 0,0 -0.0907,0.0907 -0.0907,0.0907 -0.18133,0.18133 0,0 0,0 -0.0907,0.0907 0,0 -0.0907,0.0907 -0.18133,0.18133 -0.0907,0.0907 -0.0907,0.18134 -0.18134,0.18134 0,0.0907 -0.0907,0.0907 -0.0907,0.18133 0,0 -0.0907,0.0907 -0.0907,0.0907 l -26.928,35.35999 -25.93066,-35.26933 c 0,0 -0.0907,-0.0907 -0.0907,-0.0907 -0.0907,-0.18134 -0.18133,-0.272 -0.272,-0.36267 -0.0907,-0.0907 -0.18133,-0.18133 -0.272,-0.272 -0.0907,-0.0907 -0.0907,-0.18133 -0.18133,-0.272 -0.18134,-0.0907 -0.272,-0.18133 -0.36267,-0.272 -0.0907,-0.0907 -0.18133,-0.0907 -0.18133,-0.18133 -0.18134,-0.0907 -0.272,-0.18134 -0.36267,-0.272 -0.0907,0 -0.18133,-0.0907 -0.272,-0.18134 -0.0907,0 -0.272,-0.0907 -0.36267,-0.18133 -0.0907,-0.0907 -0.18133,-0.0907 -0.272,-0.18133 -0.18133,0 -0.272,-0.0907 -0.36266,-0.18134 -0.0907,0 -0.272,-0.0907 -0.36267,-0.0907 -0.0907,-0.0907 -0.18133,-0.0907 -0.272,-0.0907 -0.18133,-0.0907 -0.272,-0.0907 -0.45333,-0.18133 -0.0907,0 -0.18134,0 -0.272,-0.0907 -0.18134,0 -0.272,0 -0.36267,-0.0907 -0.18133,0 -0.272,0 -0.36267,0 -0.18133,0 -0.272,0 -0.36266,-0.0907 -0.18134,0 -0.272,0 -0.45334,0 -0.0907,0 -0.0907,0 -0.18133,0 0,0 0,0 0,0 -0.0907,0 -0.0907,0 -0.18133,0 -0.0907,0 -0.18134,0 -0.272,0 -0.0907,0 -0.18134,0 -0.272,0.0907 0,0 -0.0907,0 -0.0907,0 -0.0907,0 -0.18133,0 -0.18133,0 0,0 0,0 0,0 -1.99467,0.272 -3.62667,1.26934 -4.80534,2.62934 0,0 -0.0907,0.0907 -0.0907,0.0907 0,0.0907 -0.0907,0.0907 -0.0907,0.18134 -0.0907,0.0907 -0.18133,0.18133 -0.18133,0.272 -0.0907,0.0907 -0.18134,0.18133 -0.18134,0.272 -0.0907,0.0907 -0.18133,0.18133 -0.272,0.272 0,0.18133 -0.0907,0.272 -0.0907,0.36266 -0.0907,0.0907 -0.18134,0.18134 -0.18134,0.36267 -0.0907,0.0907 -0.0907,0.18133 -0.18133,0.36267 0,0.0907 -0.0907,0.18133 -0.0907,0.272 -0.0907,0.0907 -0.0907,0.272 -0.0907,0.36266 -0.0907,0.0907 -0.0907,0.272 -0.0907,0.36267 -0.0907,0.0907 -0.0907,0.272 -0.0907,0.36267 0,0 0,0 0,0 0,0.0907 0,0.18133 -0.0907,0.272 0,0.0907 0,0.0907 0,0.18133 0,0.0907 0,0.0907 0,0.18133 0,0.0907 0,0.18134 0,0.272 0,0.18134 -0.0907,0.36267 0,0.544 v 65.73333 c 0,4.17067 3.35466,7.52534 7.52533,7.52534 4.17067,0 7.52533,-3.35467 7.52533,-7.52534 v -42.79466 l 18.224,24.66133 c 0,0 0,0.0907 0,0.0907 h 0.0907 c 0.0907,0.18133 0.18133,0.36266 0.272,0.45333 0.0907,0.0907 0.0907,0.0907 0.18133,0.18133 0.272,0.36267 0.63467,0.63467 0.99733,0.90667 0,0 0,0 0,0 0,0 0,0 0,0.0907 0.18134,0.0907 0.36267,0.18133 0.544,0.272 0,0 0,0.0907 0,0.0907 0.18134,0.0907 0.36267,0.18134 0.544,0.272 0,0 0,0 0.0907,0 0.0907,0.0907 0.18133,0.0907 0.272,0.18134 2.90133,1.45066 6.528,1.17866 9.15733,-2.26667 0,0 0,0 0,0 l 0.0907,-0.0907 c 0,0 0,0 0,-0.0907 l 19.40267,-25.38667 v 43.42933 c 0,4.17067 3.35466,7.52534 7.52533,7.52534 4.17067,0 7.616,-3.35467 7.616,-7.52534 v -65.73333 c 0,0 0,0 0,0 z"
     style=""
     id="path839" /><path
     d="m 395.18249,352.17701 h -31.46133 v -58.29866 c 0,-4.17067 -3.35467,-7.616 -7.52534,-7.616 -4.17066,0 -7.52533,3.44533 -7.52533,7.616 v 65.82399 c 0,4.17067 3.35467,7.52534 7.52533,7.52534 h 38.98667 c 4.17066,0 7.52533,-3.35467 7.52533,-7.52534 0,-4.17066 -3.35467,-7.52533 -7.52533,-7.52533 z"
     style=""
     id="path841" /></g>
<path
   style="fill:#CAD1D8;"
   d="M400,432H96v16h304c8.8,0,16-7.2,16-16v-16C416,424.8,408.8,432,400,432z"
   id="path18" />
<g
   id="g20">
</g>
<g
   id="g22">
</g>
<g
   id="g24">
</g>
<g
   id="g26">
</g>
<g
   id="g28">
</g>
<g
   id="g30">
</g>
<g
   id="g32">
</g>
<g
   id="g34">
</g>
<g
   id="g36">
</g>
<g
   id="g38">
</g>
<g
   id="g40">
</g>
<g
   id="g42">
</g>
<g
   id="g44">
</g>
<g
   id="g46">
</g>
<g
   id="g48">
</g>
</svg>